<svg height="512" viewBox="0 0 64 64" width="512" xmlns="http://www.w3.org/2000/svg"><g id="Layer_27" data-name="Layer 27"><path d="m19 15a13 13 0 0 1 13-13 13 13 0 0 1 13 13z" fill="#a0a8b2"/><path d="m45.36 41.8-6.36-.8v-6.06a12.92 12.92 0 0 1 -14 0v6.06l-6.36.8a11 11 0 0 0 -9.64 10.91v10.29h46v-10.29a11 11 0 0 0 -9.64-10.91z" fill="#fddfb1"/><path d="m17 54h-8a2 2 0 0 0 -2 2 2 2 0 0 0 2 2h8z" fill="#e47c6f"/><path d="m47 54h8a2 2 0 0 1 2 2 2 2 0 0 1 -2 2h-8z" fill="#e47c6f"/><g fill="#fddfb1"><path d="m45 19v5a13 13 0 0 1 -13 13 13 13 0 0 1 -13-13v-5z"/><path d="m45.5 21h-.5v3a13.19 13.19 0 0 1 -.63 4h1.13a3.5 3.5 0 0 0 3.5-3.5 3.5 3.5 0 0 0 -3.5-3.5z"/><path d="m19 24v-3h-.5a3.5 3.5 0 0 0 -3.5 3.5 3.5 3.5 0 0 0 3.5 3.5h1.13a13.19 13.19 0 0 1 -.63-4z"/></g><path d="m43.68 29.68a12.86 12.86 0 0 1 -2.49 3.51l4.81 4.81 3-3z" fill="#e47c6f"/><path d="m20.48 30-5 5 3 3 4.57-4.57a12.93 12.93 0 0 1 -2.57-3.43z" fill="#e47c6f"/><rect fill="#e47c6f" height="4" rx="2" width="32" x="16" y="15"/><path d="m58 56a3 3 0 0 0 -2-2.82v-.47a12 12 0 0 0 -10.51-11.91l-5.49-.68v-4.65a14.23 14.23 0 0 0 1.15-.9l4.14 4.14a1 1 0 0 0 1.42 0l3-3a1 1 0 0 0 0-1.42l-4.82-4.82c.06-.15.11-.31.17-.47h.44a4.49 4.49 0 0 0 .5-8.95v-.05a3 3 0 0 0 0-6 14 14 0 0 0 -27.9 0h-.1a3 3 0 0 0 0 6v.05a4.49 4.49 0 0 0 .5 9h.44c.1.27.22.54.34.81l-4.49 4.48a1 1 0 0 0 0 1.42l3 3a1 1 0 0 0 1.42 0l3.9-3.9c.28.23.59.45.89.66v4.65l-5.49.68a12 12 0 0 0 -10.51 11.86v.47a3 3 0 0 0 0 5.64v4.18h2v-4h6v4h2v-12h-2v2h-6v-.29a10 10 0 0 1 8.76-9.92l6.36-.8a1 1 0 0 0 .88-.99v-4.37a13.82 13.82 0 0 0 12 0v4.37a1 1 0 0 0 .88 1l6.36.8a10 10 0 0 1 8.76 9.91v.29h-6v-2h-2v12h2v-4h6v4h2v-4.18a3 3 0 0 0 2-2.82zm-42 1h-7a1 1 0 0 1 0-2h7zm31.59-22-1.59 1.59-3.43-3.44a14.33 14.33 0 0 0 1.34-1.83zm.41-10.5a2.49 2.49 0 0 1 -2.33 2.5 14 14 0 0 0 .33-3v-1.95a2.5 2.5 0 0 1 2 2.45zm-1-7.5a1 1 0 0 1 -1 1h-3.59l2-2h1.59a1 1 0 0 1 1 1zm-20.41-1-2 2h-2.18l2-2zm2.82 0h2.18l-2 2h-2.18zm5 0h2.18l-2 2h-2.18zm5 0h2.18l-2 2h-2.18zm-7.41-13a12 12 0 0 1 12 11h-23.95a12 12 0 0 1 11.95-11zm-15 14a1 1 0 0 1 1-1h3.59l-2 2h-1.59a1 1 0 0 1 -1-1zm-1 7.5a2.5 2.5 0 0 1 2-2.45v1.95a14 14 0 0 0 .33 3 2.49 2.49 0 0 1 -2.33-2.5zm2.5 12.09-1.59-1.59 3.37-3.37a13.39 13.39 0 0 0 1.39 1.79zm1.5-12.59v-4h24v4a12 12 0 0 1 -24 0zm35 33h-7v-2h7a1 1 0 0 1 0 2z"/><path d="m40 54h2v2h-2z"/><path d="m22 54h2v2h-2z"/></g></svg>